<svg width="235" height="46" viewBox="0 0 235 46" fill="none" xmlns="http://www.w3.org/2000/svg">
<path d="M10.975 14.975H14V17.65H10.975V14.975ZM10.9 17.225L13.225 18.225C10.725 20.525 6.525 22.2 2.375 22.95C2.05 22.3 1.325 21.325 0.775 20.775C4.75 20.25 8.85 18.975 10.9 17.225ZM14.225 17.075C15.7 20.85 18.95 23.15 24.25 23.925C23.675 24.475 22.975 25.575 22.625 26.3C16.85 25.2 13.6 22.425 11.775 17.6L14.225 17.075ZM20.8 18.35L22.925 19.925C21.35 21 19.4 22 17.875 22.65L16.075 21.175C17.575 20.5 19.6 19.275 20.8 18.35ZM4.05 23.575C6.675 23.275 10.65 22.775 14.425 22.25L14.525 24.575C10.975 25.1 7.225 25.625 4.475 26L4.05 23.575ZM1.2 16.3H23.775V18.65H1.2V16.3ZM14.75 3.775H17.425V12.15H14.75V3.775ZM20.15 2.975H22.875V13C22.875 14.3 22.625 14.925 21.725 15.3C20.825 15.675 19.6 15.7 17.85 15.7C17.725 15 17.325 14 16.975 13.325C18.1 13.375 19.325 13.375 19.675 13.35C20.05 13.35 20.15 13.25 20.15 12.95V2.975ZM6.325 2.775H8.9V15.7H6.325V2.775ZM10.9 10.175H13.3V13.025C13.3 13.975 13.15 14.425 12.5 14.725C11.875 15.025 11.075 15.025 10 15.025C9.875 14.45 9.525 13.775 9.275 13.3C9.85 13.325 10.425 13.325 10.625 13.3C10.825 13.3 10.9 13.25 10.9 13.05V10.175ZM2.175 10.175H11.9V12H4.45V15.125H2.175V10.175ZM1.15 7.3H13.7V9.3H1.15V7.3ZM3.9 4.4H13.025V6.3H3.125L3.9 4.4ZM3.1 2.825L5.3 3.35C4.775 4.875 3.925 6.525 3.1 7.55C2.625 7.2 1.675 6.675 1.125 6.4C1.975 5.475 2.675 4.1 3.1 2.825ZM6.55 21.175L8.1 19.625L9.425 20.05V24.9H6.55V21.175ZM40.25 5.6H52.125V8.15H40.25V5.6ZM36.975 10.25H53.15V12.75H36.975V10.25ZM39.9 3.025L42.675 3.65C41.825 6.225 40.35 8.7 38.85 10.3C38.275 9.85 37.025 9.175 36.325 8.85C37.9 7.45 39.175 5.225 39.9 3.025ZM43.675 2.775H46.65V11.925H43.675V2.775ZM36.175 12.525V21.725H33.25V15.3H30.325V12.525H36.175ZM36.175 20.425C37.175 22.075 39.075 22.8 41.675 22.9C44.6 23.025 50.275 22.95 53.65 22.675C53.325 23.375 52.825 24.825 52.7 25.725C49.675 25.875 44.625 25.925 41.625 25.8C38.55 25.675 36.475 24.95 34.85 23C33.75 23.975 32.625 24.925 31.275 26.025L29.8 22.9C30.925 22.2 32.275 21.325 33.425 20.425H36.175ZM30.375 5.15L32.6 3.35C34.1 4.4 35.925 5.975 36.8 7.15L34.4 9.125C33.65 7.95 31.85 6.275 30.375 5.15ZM41.925 16.5V19.05H48.525V16.5H41.925ZM39 14.125H51.65V21.45H39V14.125ZM59.9 18.075H82.2V20.525H59.9V18.075ZM59.95 6.85H82.1V9.325H59.95V6.85ZM60.975 11.325H81.15V13.675H60.975V11.325ZM62.225 14.775H79.975V16.95H62.225V14.775ZM69.475 12.525H72.45V26.25H69.475V12.525ZM67.3 2.75H70.1V8.025H67.3V2.75ZM71.925 2.75H74.775V7.85H71.925V2.75ZM68.925 19.175L71.275 20.225C68.9 22.825 64.9 24.95 61.05 25.95C60.65 25.225 59.775 24.075 59.125 23.45C62.9 22.725 66.875 21.075 68.925 19.175ZM73.05 19.1C75.075 21.075 78.975 22.625 82.875 23.275C82.2 23.9 81.3 25.15 80.85 25.975C76.9 24.975 73.075 22.85 70.725 20.025L73.05 19.1ZM77.675 2.95L80.825 3.7C80.025 5.075 79.175 6.425 78.525 7.35L76.1 6.6C76.675 5.575 77.325 4.05 77.675 2.95ZM74.375 8.325L77.55 9.05C76.875 10.25 76.225 11.35 75.7 12.15L73.15 11.425C73.6 10.525 74.125 9.25 74.375 8.325ZM61.75 3.75L64.325 2.875C65.05 3.95 65.875 5.45 66.225 6.425L63.5 7.4C63.225 6.425 62.425 4.9 61.75 3.75ZM64.925 9.35L67.825 8.9C68.25 9.6 68.725 10.575 68.925 11.25L65.875 11.775C65.725 11.125 65.3 10.075 64.925 9.35ZM92.4641 24H88.3448L94.6214 5.81818H99.5753L105.843 24H101.724L97.1694 9.97301H97.0273L92.4641 24ZM92.2067 16.8533H101.937V19.854H92.2067V16.8533ZM116.126 5.81818V24H112.281V5.81818H116.126ZM128.408 6.425H131.433V13.4C131.433 18.1 130.683 23.1 124.933 26.275C124.483 25.575 123.433 24.475 122.733 23.975C127.808 21.275 128.408 17.2 128.408 13.35V6.425ZM137.783 3.15H140.833V26.225H137.783V3.15ZM122.983 12.675H145.933V15.55H122.983V12.675ZM133.883 2.9L136.008 5.425C132.658 7.1 128.183 8.375 124.183 9.275C124.033 8.55 123.558 7.45 123.158 6.8C127.058 5.9 131.233 4.45 133.883 2.9ZM161.158 4.225H170.383V6.975H161.158V4.225ZM169.158 4.225H169.483L169.908 4.1L171.933 4.375C171.508 7.325 170.783 11.125 170.158 14.125L167.458 13.825C168.133 10.775 168.858 6.675 169.158 4.525V4.225ZM169.583 10.475H173.408V13.15H168.783L169.583 10.475ZM172.408 10.475H172.958L173.458 10.375L175.233 11.05C173.858 18.7 170.308 23.7 165.708 26.2C165.283 25.55 164.308 24.425 163.683 24C168.133 21.825 171.308 17.5 172.408 11.05V10.475ZM165.808 7.975C166.933 15.6 169.483 21.6 175.758 23.85C175.133 24.4 174.308 25.525 173.908 26.3C167.333 23.475 164.908 17 163.608 8.3L165.808 7.975ZM155.708 2.8L158.308 3.775C157.283 5.675 156.133 7.9 155.158 9.3L153.158 8.425C154.058 6.95 155.133 4.55 155.708 2.8ZM158.583 5.75L161.008 6.85C159.208 9.725 156.758 13.2 154.858 15.375L153.133 14.4C154.983 12.125 157.283 8.45 158.583 5.75ZM151.858 8.725L153.283 6.675C154.608 7.825 156.158 9.4 156.808 10.55L155.258 12.875C154.658 11.675 153.133 9.925 151.858 8.725ZM158.158 11.725L160.133 10.9C161.133 12.575 162.083 14.775 162.358 16.225L160.233 17.175C159.958 15.725 159.083 13.45 158.158 11.725ZM151.833 13.8C154.133 13.725 157.533 13.6 160.858 13.425L160.833 15.8C157.733 16.05 154.533 16.25 152.083 16.425L151.833 13.8ZM158.483 17.9L160.583 17.225C161.183 18.55 161.783 20.325 162.033 21.475L159.833 22.25C159.608 21.075 159.008 19.275 158.483 17.9ZM152.908 17.475L155.383 17.9C155.133 20.3 154.583 22.8 153.858 24.4C153.333 24.075 152.208 23.55 151.583 23.3C152.308 21.825 152.708 19.6 152.908 17.475ZM155.708 15.125H158.333V26.275H155.708V15.125ZM163.208 6.05H165.808V10.75C165.808 15.2 165.333 21.775 161.358 26.175C160.883 25.7 159.833 24.9 159.158 24.575C162.858 20.575 163.208 14.625 163.208 10.725V6.05ZM190.358 14.8H193.458C193.458 14.8 193.433 15.675 193.383 16.075C192.983 21.6 192.533 24.025 191.633 25C190.933 25.775 190.233 26 189.133 26.125C188.283 26.225 186.758 26.2 185.208 26.175C185.133 25.2 184.683 23.875 184.083 23.025C185.608 23.15 187.208 23.175 187.883 23.175C188.383 23.175 188.683 23.125 189.008 22.875C189.633 22.35 190.033 20.15 190.333 15.225L190.358 14.8ZM183.333 9.375H186.408C185.958 12.5 185.358 16.3 184.833 18.725L181.833 18.25C182.383 15.9 183.008 12.275 183.333 9.375ZM198.908 3.15H201.933V26.25H198.908V3.15ZM183.983 14.8H191.233V17.575H183.608L183.983 14.8ZM184.383 9.375H190.308V6.525H182.733V3.75H193.258V12.175H184.383V9.375ZM210.783 3.725H222.658V5.575H210.783V3.725ZM213.308 2.775H215.758V6.45H213.308V2.775ZM217.633 2.775H220.133V6.525H217.633V2.775ZM224.833 4.925H233.533V7.075H224.833V4.925ZM213.433 7.1H220.183V8.675H213.433V7.1ZM225.008 2.725L227.458 3.3C226.633 5.925 225.183 8.45 223.558 10.025C223.133 9.6 222.158 8.775 221.608 8.375C223.158 7.05 224.358 4.925 225.008 2.725ZM229.783 5.9L232.508 6.15C231.183 10.6 227.883 12.825 223.208 14.075C222.908 13.5 222.158 12.4 221.683 11.9C225.933 11.05 228.908 9.325 229.783 5.9ZM225.783 6.725C227.083 9.55 229.908 11.45 233.958 12.1C233.408 12.65 232.708 13.675 232.358 14.4C228.008 13.375 225.233 10.925 223.683 7.15L225.783 6.725ZM213.258 9.375H218.233V13.1H213.258V11.75H216.208V10.725H213.258V9.375ZM219.408 7.1H221.908C221.908 7.1 221.908 7.65 221.883 7.95C221.758 11.475 221.583 12.9 221.108 13.5C220.708 13.975 220.208 14.15 219.608 14.2C219.083 14.275 218.158 14.275 217.233 14.225C217.183 13.65 216.958 12.825 216.683 12.35C217.383 12.4 218.033 12.425 218.333 12.425C218.633 12.425 218.808 12.375 218.958 12.175C219.208 11.85 219.333 10.675 219.408 7.45V7.1ZM212.783 6.175L215.033 6.55C214.358 8.225 213.408 9.775 211.858 11.1C211.508 10.6 210.808 9.825 210.308 9.5C211.533 8.525 212.333 7.275 212.783 6.175ZM212.508 9.375H214.483V13.75H212.508V9.375ZM212.658 17.6H231.958V19.6H212.658V17.6ZM210.858 20.575H233.558V22.7H210.858V20.575ZM220.733 15.3H223.708V23.525C223.708 24.875 223.408 25.5 222.383 25.875C221.408 26.225 220.083 26.275 218.233 26.25C218.083 25.525 217.658 24.5 217.283 23.825C218.433 23.875 219.858 23.875 220.208 23.875C220.583 23.85 220.733 23.75 220.733 23.45V15.3ZM228.783 14.1L230.483 15.85C225.983 16.575 219.283 16.775 213.758 16.675C213.708 16.15 213.458 15.3 213.258 14.8C218.658 14.85 225.158 14.65 228.783 14.1Z" fill="#2C3240"/>
<path d="M2.45135 43H0.309304L3.57315 33.5455H6.14915L9.40838 43H7.26634L4.89808 35.706H4.82422L2.45135 43ZM2.31747 39.2837H7.37713V40.8441H2.31747V39.2837ZM12.9353 33.5455V43H10.9363V33.5455H12.9353ZM19.3509 37.4925V39.0529H15.0391V37.4925H19.3509ZM24.8052 43H21.4536V33.5455H24.8329C25.7839 33.5455 26.6026 33.7347 27.2889 34.1133C27.9752 34.4888 28.503 35.0289 28.8723 35.7337C29.2447 36.4384 29.4309 37.2817 29.4309 38.2635C29.4309 39.2483 29.2447 40.0947 28.8723 40.8026C28.503 41.5104 27.9721 42.0536 27.2796 42.4322C26.5902 42.8107 25.7654 43 24.8052 43ZM23.4526 41.2873H24.7221C25.313 41.2873 25.8101 41.1826 26.2132 40.9734C26.6195 40.761 26.9242 40.4332 27.1273 39.9901C27.3335 39.5438 27.4366 38.9683 27.4366 38.2635C27.4366 37.5649 27.3335 36.994 27.1273 36.5508C26.9242 36.1076 26.621 35.7814 26.2179 35.5721C25.8147 35.3628 25.3176 35.2582 24.7267 35.2582H23.4526V41.2873ZM31.2647 43V35.9091H33.1713V37.1463H33.2452C33.3745 36.7062 33.5914 36.3738 33.8961 36.1491C34.2008 35.9214 34.5517 35.8075 34.9487 35.8075C35.0472 35.8075 35.1533 35.8137 35.2672 35.826C35.3811 35.8383 35.4811 35.8552 35.5673 35.8768V37.6218C35.475 37.5941 35.3472 37.5695 35.1841 37.5479C35.021 37.5264 34.8717 37.5156 34.7363 37.5156C34.447 37.5156 34.1885 37.5787 33.9607 37.7049C33.7361 37.828 33.5576 38.0004 33.4252 38.2219C33.296 38.4435 33.2313 38.699 33.2313 38.9883V43H31.2647ZM36.9741 43V35.9091H38.9407V43H36.9741ZM37.962 34.995C37.6696 34.995 37.4188 34.8981 37.2095 34.7042C37.0033 34.5072 36.9002 34.2718 36.9002 33.9979C36.9002 33.727 37.0033 33.4947 37.2095 33.3008C37.4188 33.1038 37.6696 33.0053 37.962 33.0053C38.2544 33.0053 38.5037 33.1038 38.7099 33.3008C38.9191 33.4947 39.0238 33.727 39.0238 33.9979C39.0238 34.2718 38.9191 34.5072 38.7099 34.7042C38.5037 34.8981 38.2544 34.995 37.962 34.995ZM47.5168 35.9091L45.0378 43H42.8219L40.3428 35.9091H42.4203L43.8929 40.9826H43.9668L45.4348 35.9091H47.5168ZM51.9163 43.1385C51.1869 43.1385 50.559 42.9908 50.0327 42.6953C49.5095 42.3968 49.1064 41.9751 48.8232 41.4304C48.5401 40.8826 48.3985 40.2347 48.3985 39.4869C48.3985 38.7575 48.5401 38.1173 48.8232 37.5664C49.1064 37.0155 49.5049 36.5862 50.0189 36.2784C50.5359 35.9706 51.1422 35.8168 51.8378 35.8168C52.3056 35.8168 52.7411 35.8922 53.1442 36.043C53.5505 36.1907 53.9044 36.4138 54.206 36.7124C54.5107 37.0109 54.7477 37.3864 54.917 37.8388C55.0862 38.2881 55.1709 38.8144 55.1709 39.4176V39.9577H49.1833V38.739H53.3197C53.3197 38.4558 53.2581 38.205 53.135 37.9865C53.0119 37.768 52.8411 37.5972 52.6226 37.4741C52.4071 37.3479 52.1563 37.2848 51.8701 37.2848C51.5716 37.2848 51.3069 37.354 51.0761 37.4925C50.8483 37.628 50.6698 37.8111 50.5405 38.0419C50.4113 38.2696 50.3451 38.5236 50.342 38.8036V39.9624C50.342 40.3132 50.4067 40.6164 50.5359 40.8718C50.6683 41.1272 50.8545 41.3242 51.0945 41.4627C51.3346 41.6012 51.6193 41.6705 51.9486 41.6705C52.1671 41.6705 52.3671 41.6397 52.5487 41.5781C52.7303 41.5166 52.8857 41.4242 53.015 41.3011C53.1442 41.178 53.2427 41.0272 53.3104 40.8487L55.1293 40.9688C55.037 41.4058 54.8477 41.7874 54.5615 42.1136C54.2784 42.4368 53.9121 42.6892 53.4628 42.8707C53.0165 43.0492 52.501 43.1385 51.9163 43.1385ZM58.8109 38.9006V43H56.8443V35.9091H58.7185V37.1602H58.8016C58.9586 36.7478 59.2217 36.4215 59.5911 36.1815C59.9604 35.9383 60.4082 35.8168 60.9345 35.8168C61.4269 35.8168 61.8562 35.9245 62.2224 36.1399C62.5887 36.3554 62.8734 36.6631 63.0765 37.0632C63.2796 37.4602 63.3812 37.9342 63.3812 38.4851V43H61.4146V38.8359C61.4176 38.402 61.3068 38.0634 61.0822 37.8203C60.8575 37.5741 60.5482 37.451 60.1543 37.451C59.8896 37.451 59.6557 37.5079 59.4526 37.6218C59.2525 37.7357 59.0956 37.9019 58.9817 38.1204C58.8709 38.3358 58.814 38.5959 58.8109 38.9006ZM70.7558 33.5455V43H68.7569V33.5455H70.7558ZM74.7201 38.9006V43H72.7535V35.9091H74.6278V37.1602H74.7109C74.8679 36.7478 75.131 36.4215 75.5003 36.1815C75.8696 35.9383 76.3174 35.8168 76.8437 35.8168C77.3361 35.8168 77.7655 35.9245 78.1317 36.1399C78.4979 36.3554 78.7826 36.6631 78.9858 37.0632C79.1889 37.4602 79.2904 37.9342 79.2904 38.4851V43H77.3238V38.8359C77.3269 38.402 77.2161 38.0634 76.9914 37.8203C76.7668 37.5741 76.4575 37.451 76.0635 37.451C75.7988 37.451 75.5649 37.5079 75.3618 37.6218C75.1618 37.7357 75.0048 37.9019 74.8909 38.1204C74.7801 38.3358 74.7232 38.5959 74.7201 38.9006ZM83.8434 43.1154C83.3048 43.1154 82.817 42.9769 82.3799 42.6999C81.946 42.4199 81.6013 42.009 81.3458 41.4673C81.0935 40.9226 80.9673 40.2547 80.9673 39.4638C80.9673 38.6513 81.0981 37.9757 81.3597 37.4371C81.6213 36.8955 81.9691 36.4908 82.403 36.223C82.84 35.9522 83.3186 35.8168 83.8387 35.8168C84.2358 35.8168 84.5666 35.8845 84.8313 36.0199C85.099 36.1522 85.3145 36.3184 85.4776 36.5185C85.6438 36.7154 85.77 36.9093 85.8561 37.1001H85.9162V33.5455H87.8782V43H85.9392V41.8643H85.8561C85.7638 42.0613 85.633 42.2567 85.4637 42.4506C85.2975 42.6415 85.0806 42.8 84.8128 42.9261C84.5481 43.0523 84.225 43.1154 83.8434 43.1154ZM84.4666 41.5504C84.7836 41.5504 85.0513 41.4643 85.2698 41.2919C85.4914 41.1165 85.6607 40.8718 85.7777 40.5579C85.8977 40.244 85.9577 39.8762 85.9577 39.4545C85.9577 39.0329 85.8992 38.6667 85.7823 38.3558C85.6653 38.045 85.4961 37.8049 85.2745 37.6357C85.0529 37.4664 84.7836 37.3817 84.4666 37.3817C84.1434 37.3817 83.8711 37.4695 83.6495 37.6449C83.4279 37.8203 83.2601 38.0634 83.1463 38.3743C83.0324 38.6851 82.9755 39.0452 82.9755 39.4545C82.9755 39.867 83.0324 40.2317 83.1463 40.5487C83.2632 40.8626 83.4309 41.1088 83.6495 41.2873C83.8711 41.4627 84.1434 41.5504 84.4666 41.5504ZM94.4323 39.9808V35.9091H96.3989V43H94.5108V41.712H94.4369C94.2769 42.1275 94.0107 42.4614 93.6383 42.7138C93.269 42.9661 92.8181 43.0923 92.2856 43.0923C91.8117 43.0923 91.3947 42.9846 91.0346 42.7692C90.6745 42.5537 90.3929 42.2475 90.1898 41.8505C89.9897 41.4535 89.8882 40.978 89.8851 40.424V35.9091H91.8517V40.0732C91.8548 40.4917 91.9671 40.8226 92.1887 41.0657C92.4103 41.3088 92.7073 41.4304 93.0797 41.4304C93.3167 41.4304 93.5382 41.3765 93.7444 41.2688C93.9507 41.158 94.1168 40.9949 94.243 40.7795C94.3723 40.564 94.4354 40.2978 94.4323 39.9808ZM104.262 37.9311L102.461 38.0419C102.431 37.888 102.364 37.7495 102.263 37.6264C102.161 37.5002 102.027 37.4002 101.861 37.3263C101.698 37.2494 101.503 37.2109 101.275 37.2109C100.97 37.2109 100.713 37.2756 100.504 37.4048C100.295 37.531 100.19 37.7003 100.19 37.9126C100.19 38.0819 100.258 38.225 100.393 38.342C100.529 38.4589 100.761 38.5528 101.09 38.6236L102.374 38.8821C103.063 39.0237 103.577 39.2514 103.916 39.5653C104.254 39.8793 104.423 40.2917 104.423 40.8026C104.423 41.2673 104.286 41.6751 104.013 42.0259C103.742 42.3768 103.369 42.6507 102.895 42.8477C102.424 43.0415 101.881 43.1385 101.266 43.1385C100.327 43.1385 99.5792 42.9431 99.0221 42.5522C98.4682 42.1583 98.1435 41.6228 98.0481 40.9457L99.9824 40.8441C100.041 41.1303 100.182 41.3488 100.407 41.4996C100.632 41.6474 100.92 41.7212 101.27 41.7212C101.615 41.7212 101.892 41.6551 102.101 41.5227C102.314 41.3873 102.421 41.2134 102.424 41.0011C102.421 40.8226 102.346 40.6764 102.198 40.5625C102.051 40.4455 101.823 40.3563 101.515 40.2947L100.287 40.0501C99.5946 39.9116 99.0791 39.6715 98.7405 39.3299C98.4051 38.9883 98.2373 38.5528 98.2373 38.0234C98.2373 37.5679 98.3604 37.1755 98.6067 36.8462C98.856 36.5169 99.2053 36.263 99.6546 36.0845C100.107 35.906 100.636 35.8168 101.243 35.8168C102.138 35.8168 102.843 36.006 103.357 36.3846C103.874 36.7631 104.176 37.2786 104.262 37.9311ZM109.823 35.9091V37.3864H105.553V35.9091H109.823ZM106.523 34.2102H108.489V40.821C108.489 41.0026 108.517 41.1442 108.572 41.2457C108.628 41.3442 108.705 41.4135 108.803 41.4535C108.905 41.4935 109.022 41.5135 109.154 41.5135C109.246 41.5135 109.339 41.5058 109.431 41.4904C109.523 41.4719 109.594 41.4581 109.643 41.4489L109.953 42.9123C109.854 42.9431 109.716 42.9785 109.537 43.0185C109.359 43.0616 109.142 43.0877 108.886 43.0969C108.412 43.1154 107.997 43.0523 107.64 42.9077C107.286 42.763 107.01 42.5384 106.814 42.2337C106.617 41.929 106.52 41.5443 106.523 41.0795V34.2102ZM111.495 43V35.9091H113.401V37.1463H113.475C113.604 36.7062 113.821 36.3738 114.126 36.1491C114.431 35.9214 114.781 35.8075 115.178 35.8075C115.277 35.8075 115.383 35.8137 115.497 35.826C115.611 35.8383 115.711 35.8552 115.797 35.8768V37.6218C115.705 37.5941 115.577 37.5695 115.414 37.5479C115.251 37.5264 115.102 37.5156 114.966 37.5156C114.677 37.5156 114.418 37.5787 114.191 37.7049C113.966 37.828 113.787 38.0004 113.655 38.2219C113.526 38.4435 113.461 38.699 113.461 38.9883V43H111.495ZM118.634 45.6591C118.385 45.6591 118.151 45.6391 117.932 45.5991C117.717 45.5621 117.538 45.5144 117.397 45.456L117.84 43.9879C118.071 44.0587 118.278 44.0972 118.463 44.1033C118.651 44.1095 118.812 44.0664 118.948 43.9741C119.086 43.8817 119.199 43.7248 119.285 43.5032L119.4 43.2031L116.856 35.9091H118.925L120.393 41.1165H120.467L121.948 35.9091H124.03L121.274 43.7663C121.142 44.148 120.962 44.4804 120.734 44.7635C120.51 45.0497 120.225 45.2698 119.88 45.4237C119.536 45.5806 119.12 45.6591 118.634 45.6591ZM134.702 33.5455H136.701V39.6854C136.701 40.3748 136.537 40.978 136.207 41.495C135.881 42.0121 135.424 42.4152 134.836 42.7045C134.248 42.9908 133.564 43.1339 132.782 43.1339C131.997 43.1339 131.311 42.9908 130.723 42.7045C130.135 42.4152 129.678 42.0121 129.352 41.495C129.026 40.978 128.863 40.3748 128.863 39.6854V33.5455H130.862V39.5146C130.862 39.8746 130.94 40.1947 131.097 40.4748C131.257 40.7549 131.482 40.9749 131.771 41.1349C132.06 41.295 132.397 41.375 132.782 41.375C133.17 41.375 133.507 41.295 133.793 41.1349C134.082 40.9749 134.305 40.7549 134.462 40.4748C134.622 40.1947 134.702 39.8746 134.702 39.5146V33.5455ZM138.699 45.6591V35.9091H140.638V37.1001H140.726C140.812 36.9093 140.937 36.7154 141.1 36.5185C141.266 36.3184 141.481 36.1522 141.746 36.0199C142.014 35.8845 142.346 35.8168 142.743 35.8168C143.26 35.8168 143.737 35.9522 144.174 36.223C144.611 36.4908 144.961 36.8955 145.222 37.4371C145.484 37.9757 145.615 38.6513 145.615 39.4638C145.615 40.2547 145.487 40.9226 145.231 41.4673C144.979 42.009 144.634 42.4199 144.197 42.6999C143.763 42.9769 143.277 43.1154 142.738 43.1154C142.357 43.1154 142.032 43.0523 141.764 42.9261C141.5 42.8 141.283 42.6415 141.113 42.4506C140.944 42.2567 140.815 42.0613 140.726 41.8643H140.666V45.6591H138.699ZM140.624 39.4545C140.624 39.8762 140.683 40.244 140.8 40.5579C140.917 40.8718 141.086 41.1165 141.307 41.2919C141.529 41.4643 141.798 41.5504 142.115 41.5504C142.435 41.5504 142.706 41.4627 142.928 41.2873C143.149 41.1088 143.317 40.8626 143.431 40.5487C143.548 40.2317 143.606 39.867 143.606 39.4545C143.606 39.0452 143.549 38.6851 143.436 38.3743C143.322 38.0634 143.154 37.8203 142.932 37.6449C142.711 37.4695 142.438 37.3817 142.115 37.3817C141.795 37.3817 141.524 37.4664 141.303 37.6357C141.084 37.8049 140.917 38.045 140.8 38.3558C140.683 38.6667 140.624 39.0329 140.624 39.4545ZM150.51 45.8068C149.873 45.8068 149.327 45.7191 148.871 45.5437C148.419 45.3713 148.059 45.1359 147.791 44.8374C147.523 44.5388 147.349 44.2034 147.269 43.831L149.088 43.5863C149.144 43.7279 149.231 43.8602 149.351 43.9833C149.472 44.1064 149.63 44.2049 149.827 44.2788C150.027 44.3557 150.27 44.3942 150.556 44.3942C150.984 44.3942 151.337 44.2895 151.614 44.0803C151.894 43.8741 152.034 43.5278 152.034 43.0415V41.7443H151.951C151.864 41.9413 151.735 42.1275 151.563 42.3029C151.39 42.4783 151.169 42.6214 150.898 42.7322C150.627 42.843 150.304 42.8984 149.929 42.8984C149.396 42.8984 148.911 42.7753 148.474 42.5291C148.04 42.2798 147.694 41.8997 147.436 41.3888C147.18 40.8749 147.052 40.2255 147.052 39.4407C147.052 38.6374 147.183 37.9665 147.445 37.4279C147.706 36.8893 148.054 36.4862 148.488 36.2184C148.925 35.9506 149.404 35.8168 149.924 35.8168C150.321 35.8168 150.653 35.8845 150.921 36.0199C151.189 36.1522 151.404 36.3184 151.567 36.5185C151.734 36.7154 151.861 36.9093 151.951 37.1001H152.024V35.9091H153.977V43.0692C153.977 43.6725 153.829 44.1772 153.534 44.5835C153.239 44.9897 152.829 45.2944 152.306 45.4975C151.786 45.7037 151.187 45.8068 150.51 45.8068ZM150.552 41.4212C150.869 41.4212 151.137 41.3427 151.355 41.1857C151.577 41.0257 151.746 40.7979 151.863 40.5025C151.983 40.204 152.043 39.8469 152.043 39.4315C152.043 39.016 151.984 38.6559 151.867 38.3512C151.751 38.0434 151.581 37.8049 151.36 37.6357C151.138 37.4664 150.869 37.3817 150.552 37.3817C150.229 37.3817 149.956 37.4695 149.735 37.6449C149.513 37.8172 149.345 38.0573 149.231 38.3651C149.118 38.6728 149.061 39.0283 149.061 39.4315C149.061 39.8408 149.118 40.1947 149.231 40.4933C149.348 40.7887 149.516 41.018 149.735 41.1811C149.956 41.3411 150.229 41.4212 150.552 41.4212ZM155.932 43V35.9091H157.839V37.1463H157.913C158.042 36.7062 158.259 36.3738 158.564 36.1491C158.868 35.9214 159.219 35.8075 159.616 35.8075C159.715 35.8075 159.821 35.8137 159.935 35.826C160.049 35.8383 160.149 35.8552 160.235 35.8768V37.6218C160.142 37.5941 160.015 37.5695 159.852 37.5479C159.688 37.5264 159.539 37.5156 159.404 37.5156C159.114 37.5156 158.856 37.5787 158.628 37.7049C158.404 37.828 158.225 38.0004 158.093 38.2219C157.963 38.4435 157.899 38.699 157.899 38.9883V43H155.932ZM163.46 43.1339C163.008 43.1339 162.605 43.0554 162.251 42.8984C161.897 42.7384 161.617 42.503 161.411 42.1921C161.208 41.8782 161.106 41.4873 161.106 41.0195C161.106 40.6256 161.178 40.2947 161.323 40.027C161.468 39.7592 161.665 39.5438 161.914 39.3807C162.163 39.2176 162.446 39.0945 162.763 39.0114C163.083 38.9283 163.419 38.8698 163.77 38.8359C164.182 38.7929 164.515 38.7528 164.767 38.7159C165.019 38.6759 165.202 38.6174 165.316 38.5405C165.43 38.4635 165.487 38.3497 165.487 38.1989V38.1712C165.487 37.8788 165.395 37.6526 165.21 37.4925C165.028 37.3325 164.77 37.2525 164.434 37.2525C164.081 37.2525 163.799 37.331 163.59 37.4879C163.38 37.6418 163.242 37.8357 163.174 38.0696L161.355 37.9219C161.448 37.491 161.629 37.1186 161.9 36.8047C162.171 36.4877 162.52 36.2446 162.948 36.0753C163.379 35.9029 163.877 35.8168 164.444 35.8168C164.838 35.8168 165.215 35.8629 165.575 35.9553C165.938 36.0476 166.26 36.1907 166.54 36.3846C166.823 36.5785 167.046 36.8278 167.209 37.1325C167.372 37.4341 167.454 37.7957 167.454 38.2173V43H165.589V42.0167H165.533C165.419 42.2383 165.267 42.4337 165.076 42.603C164.885 42.7692 164.656 42.9 164.388 42.9954C164.121 43.0877 163.811 43.1339 163.46 43.1339ZM164.024 41.7766C164.313 41.7766 164.568 41.7197 164.79 41.6058C165.012 41.4889 165.185 41.3319 165.312 41.1349C165.438 40.938 165.501 40.7148 165.501 40.4656V39.7131C165.439 39.7531 165.355 39.79 165.247 39.8239C165.142 39.8546 165.024 39.8839 164.892 39.9116C164.759 39.9362 164.627 39.9593 164.495 39.9808C164.362 39.9993 164.242 40.0162 164.134 40.0316C163.904 40.0655 163.702 40.1193 163.53 40.1932C163.357 40.267 163.223 40.3671 163.128 40.4933C163.033 40.6164 162.985 40.7702 162.985 40.9549C162.985 41.2227 163.082 41.4273 163.276 41.5689C163.473 41.7074 163.722 41.7766 164.024 41.7766ZM171.982 43.1154C171.444 43.1154 170.956 42.9769 170.519 42.6999C170.085 42.4199 169.74 42.009 169.485 41.4673C169.232 40.9226 169.106 40.2547 169.106 39.4638C169.106 38.6513 169.237 37.9757 169.499 37.4371C169.76 36.8955 170.108 36.4908 170.542 36.223C170.979 35.9522 171.458 35.8168 171.978 35.8168C172.375 35.8168 172.706 35.8845 172.97 36.0199C173.238 36.1522 173.453 36.3184 173.617 36.5185C173.783 36.7154 173.909 36.9093 173.995 37.1001H174.055V33.5455H176.017V43H174.078V41.8643H173.995C173.903 42.0613 173.772 42.2567 173.603 42.4506C173.437 42.6415 173.22 42.8 172.952 42.9261C172.687 43.0523 172.364 43.1154 171.982 43.1154ZM172.606 41.5504C172.923 41.5504 173.19 41.4643 173.409 41.2919C173.63 41.1165 173.8 40.8718 173.917 40.5579C174.037 40.244 174.097 39.8762 174.097 39.4545C174.097 39.0329 174.038 38.6667 173.921 38.3558C173.804 38.045 173.635 37.8049 173.413 37.6357C173.192 37.4664 172.923 37.3817 172.606 37.3817C172.282 37.3817 172.01 37.4695 171.788 37.6449C171.567 37.8203 171.399 38.0634 171.285 38.3743C171.171 38.6851 171.114 39.0452 171.114 39.4545C171.114 39.867 171.171 40.2317 171.285 40.5487C171.402 40.8626 171.57 41.1088 171.788 41.2873C172.01 41.4627 172.282 41.5504 172.606 41.5504ZM181.256 43.1385C180.526 43.1385 179.898 42.9908 179.372 42.6953C178.849 42.3968 178.446 41.9751 178.163 41.4304C177.879 40.8826 177.738 40.2347 177.738 39.4869C177.738 38.7575 177.879 38.1173 178.163 37.5664C178.446 37.0155 178.844 36.5862 179.358 36.2784C179.875 35.9706 180.482 35.8168 181.177 35.8168C181.645 35.8168 182.08 35.8922 182.484 36.043C182.89 36.1907 183.244 36.4138 183.545 36.7124C183.85 37.0109 184.087 37.3864 184.256 37.8388C184.426 38.2881 184.51 38.8144 184.51 39.4176V39.9577H178.523V38.739H182.659C182.659 38.4558 182.597 38.205 182.474 37.9865C182.351 37.768 182.18 37.5972 181.962 37.4741C181.746 37.3479 181.496 37.2848 181.209 37.2848C180.911 37.2848 180.646 37.354 180.415 37.4925C180.188 37.628 180.009 37.8111 179.88 38.0419C179.751 38.2696 179.684 38.5236 179.681 38.8036V39.9624C179.681 40.3132 179.746 40.6164 179.875 40.8718C180.008 41.1272 180.194 41.3242 180.434 41.4627C180.674 41.6012 180.959 41.6705 181.288 41.6705C181.506 41.6705 181.706 41.6397 181.888 41.5781C182.07 41.5166 182.225 41.4242 182.354 41.3011C182.484 41.178 182.582 41.0272 182.65 40.8487L184.469 40.9688C184.376 41.4058 184.187 41.7874 183.901 42.1136C183.618 42.4368 183.251 42.6892 182.802 42.8707C182.356 43.0492 181.84 43.1385 181.256 43.1385ZM189.619 43V33.5455H195.99V35.1935H191.618V37.4464H195.662V39.0945H191.618V41.3519H196.009V43H189.619ZM199.899 38.9006V43H197.932V35.9091H199.807V37.1602H199.89C200.047 36.7478 200.31 36.4215 200.679 36.1815C201.048 35.9383 201.496 35.8168 202.023 35.8168C202.515 35.8168 202.944 35.9245 203.311 36.1399C203.677 36.3554 203.961 36.6631 204.165 37.0632C204.368 37.4602 204.469 37.9342 204.469 38.4851V43H202.503V38.8359C202.506 38.402 202.395 38.0634 202.17 37.8203C201.946 37.5741 201.636 37.451 201.242 37.451C200.978 37.451 200.744 37.5079 200.541 37.6218C200.341 37.7357 200.184 37.9019 200.07 38.1204C199.959 38.3358 199.902 38.5959 199.899 38.9006ZM209.604 45.8068C208.967 45.8068 208.42 45.7191 207.965 45.5437C207.513 45.3713 207.153 45.1359 206.885 44.8374C206.617 44.5388 206.443 44.2034 206.363 43.831L208.182 43.5863C208.237 43.7279 208.325 43.8602 208.445 43.9833C208.565 44.1064 208.724 44.2049 208.921 44.2788C209.121 44.3557 209.364 44.3942 209.65 44.3942C210.078 44.3942 210.43 44.2895 210.707 44.0803C210.987 43.8741 211.127 43.5278 211.127 43.0415V41.7443H211.044C210.958 41.9413 210.829 42.1275 210.656 42.3029C210.484 42.4783 210.262 42.6214 209.992 42.7322C209.721 42.843 209.398 42.8984 209.022 42.8984C208.49 42.8984 208.005 42.7753 207.568 42.5291C207.134 42.2798 206.788 41.8997 206.529 41.3888C206.274 40.8749 206.146 40.2255 206.146 39.4407C206.146 38.6374 206.277 37.9665 206.539 37.4279C206.8 36.8893 207.148 36.4862 207.582 36.2184C208.019 35.9506 208.497 35.8168 209.018 35.8168C209.415 35.8168 209.747 35.8845 210.015 36.0199C210.282 36.1522 210.498 36.3184 210.661 36.5185C210.827 36.7154 210.955 36.9093 211.044 37.1001H211.118V35.9091H213.071V43.0692C213.071 43.6725 212.923 44.1772 212.628 44.5835C212.332 44.9897 211.923 45.2944 211.4 45.4975C210.88 45.7037 210.281 45.8068 209.604 45.8068ZM209.645 41.4212C209.962 41.4212 210.23 41.3427 210.449 41.1857C210.67 41.0257 210.84 40.7979 210.956 40.5025C211.077 40.204 211.137 39.8469 211.137 39.4315C211.137 39.016 211.078 38.6559 210.961 38.3512C210.844 38.0434 210.675 37.8049 210.453 37.6357C210.232 37.4664 209.962 37.3817 209.645 37.3817C209.322 37.3817 209.05 37.4695 208.828 37.6449C208.607 37.8172 208.439 38.0573 208.325 38.3651C208.211 38.6728 208.154 39.0283 208.154 39.4315C208.154 39.8408 208.211 40.1947 208.325 40.4933C208.442 40.7887 208.61 41.018 208.828 41.1811C209.05 41.3411 209.322 41.4212 209.645 41.4212ZM215.026 43V35.9091H216.992V43H215.026ZM216.014 34.995C215.721 34.995 215.471 34.8981 215.261 34.7042C215.055 34.5072 214.952 34.2718 214.952 33.9979C214.952 33.727 215.055 33.4947 215.261 33.3008C215.471 33.1038 215.721 33.0053 216.014 33.0053C216.306 33.0053 216.555 33.1038 216.762 33.3008C216.971 33.4947 217.076 33.727 217.076 33.9979C217.076 34.2718 216.971 34.5072 216.762 34.7042C216.555 34.8981 216.306 34.995 216.014 34.995ZM220.924 38.9006V43H218.958V35.9091H220.832V37.1602H220.915C221.072 36.7478 221.335 36.4215 221.705 36.1815C222.074 35.9383 222.522 35.8168 223.048 35.8168C223.54 35.8168 223.97 35.9245 224.336 36.1399C224.702 36.3554 224.987 36.6631 225.19 37.0632C225.393 37.4602 225.495 37.9342 225.495 38.4851V43H223.528V38.8359C223.531 38.402 223.42 38.0634 223.196 37.8203C222.971 37.5741 222.662 37.451 222.268 37.451C222.003 37.451 221.769 37.5079 221.566 37.6218C221.366 37.7357 221.209 37.9019 221.095 38.1204C220.984 38.3358 220.928 38.5959 220.924 38.9006ZM230.666 43.1385C229.937 43.1385 229.309 42.9908 228.783 42.6953C228.26 42.3968 227.856 41.9751 227.573 41.4304C227.29 40.8826 227.148 40.2347 227.148 39.4869C227.148 38.7575 227.29 38.1173 227.573 37.5664C227.856 37.0155 228.255 36.5862 228.769 36.2784C229.286 35.9706 229.892 35.8168 230.588 35.8168C231.056 35.8168 231.491 35.8922 231.894 36.043C232.3 36.1907 232.654 36.4138 232.956 36.7124C233.261 37.0109 233.498 37.3864 233.667 37.8388C233.836 38.2881 233.921 38.8144 233.921 39.4176V39.9577H227.933V38.739H232.07C232.07 38.4558 232.008 38.205 231.885 37.9865C231.762 37.768 231.591 37.5972 231.373 37.4741C231.157 37.3479 230.906 37.2848 230.62 37.2848C230.322 37.2848 230.057 37.354 229.826 37.4925C229.598 37.628 229.42 37.8111 229.291 38.0419C229.161 38.2696 229.095 38.5236 229.092 38.8036V39.9624C229.092 40.3132 229.157 40.6164 229.286 40.8718C229.418 41.1272 229.604 41.3242 229.845 41.4627C230.085 41.6012 230.369 41.6705 230.699 41.6705C230.917 41.6705 231.117 41.6397 231.299 41.5781C231.48 41.5166 231.636 41.4242 231.765 41.3011C231.894 41.178 231.993 41.0272 232.06 40.8487L233.879 40.9688C233.787 41.4058 233.598 41.7874 233.311 42.1136C233.028 42.4368 232.662 42.6892 232.213 42.8707C231.767 43.0492 231.251 43.1385 230.666 43.1385Z" fill="#6E7281"/>
</svg>
